<?xml version="1.0" encoding="iso-8859-1"?>
<!-- Generator: Adobe Illustrator 19.0.0, SVG Export Plug-In . SVG Version: 6.00 Build 0)  -->
<svg version="1.1" id="Layer_1" xmlns="http://www.w3.org/2000/svg" xmlns:xlink="http://www.w3.org/1999/xlink" x="0px" y="0px"
	 viewBox="0 0 512.006 512.006" style="enable-background:new 0 0 512.006 512.006;" xml:space="preserve">
<circle style="fill:#FFE356;opacity:0" cx="256.003" cy="256.003" r="256.003"/>
<path style="fill:#FCD34E;opacity:0" d="M26.764,370.041h458.489c-41.941,84.148-128.83,141.965-229.245,141.965
	C155.6,512.006,68.706,454.189,26.764,370.041z"/>
<path style="fill:#596366;" d="M34.636,134.142h275.902c9.064,0,16.484,7.414,16.484,16.478v169.958H18.158V150.619
	C18.158,141.555,25.572,134.142,34.636,134.142z"/>
<path style="fill:#6B7F9E;" d="M29.348,309.387h286.477V150.619c0-2.891-2.403-5.288-5.288-5.288H34.636
	c-2.891,0-5.288,2.403-5.288,5.288V309.387z"/>
<path style="fill:#9C9C9C;" d="M327.022,320.577v18.026c0,9.064-8.179,16.478-18.17,16.478H36.322
	c-9.992,0-18.164-7.414-18.164-16.478v-18.026H327.022z"/>
<path style="fill:#C6CBD6;" d="M172.59,331.442c3.132,0,5.673,2.542,5.673,5.673c0,3.132-2.542,5.673-5.673,5.673
	s-5.673-2.542-5.673-5.673C166.917,333.984,169.458,331.442,172.59,331.442z"/>
<polygon style="fill:#E4E7ED;" points="208.208,381.014 234.412,389.41 110.762,389.41 131.901,381.014 131.901,355.087 
	208.208,355.087 "/>
<polygon style="fill:#ECF0F1;" points="131.901,381.014 208.208,381.014 234.412,389.41 234.412,393.029 172.59,393.029 
	110.762,393.029 110.762,389.41 "/>
<polygon style="fill:#C6CBD6;" points="131.901,355.087 208.208,355.087 208.208,381.014 "/>
<path style="fill:#6B7F9E;" d="M355.665,116.64H487.91c3.276,0,5.95,2.68,5.95,5.95v264.483c0,3.276-2.674,5.95-5.95,5.95H355.665
	c-3.27,0-5.95-2.674-5.95-5.95V122.59C349.715,119.32,352.395,116.64,355.665,116.64z"/>
<g>
	<path style="fill:#5D718F;" d="M493.258,389.669c-0.97,1.987-3.011,3.361-5.354,3.361H355.665c-2.349,0-4.39-1.373-5.354-3.361
		H493.258z"/>
	<polygon style="fill:#5D718F;" points="364.259,116.64 479.309,116.64 479.309,246.578 364.259,246.578 	"/>
</g>
<g>
	<polygon style="fill:#6B7F9E;" points="373.179,203.016 470.384,203.016 470.384,233.436 373.179,233.436 	"/>
	<polygon style="fill:#6B7F9E;" points="373.179,169.085 470.384,169.085 470.384,199.499 373.179,199.499 	"/>
	<polygon style="fill:#6B7F9E;" points="373.179,129.534 470.384,129.534 470.384,144.741 373.179,144.741 	"/>
</g>
<g>
	<polygon style="fill:#5D718F;" points="373.179,372.504 470.384,372.504 470.384,377.804 373.179,377.804 	"/>
	<polygon style="fill:#5D718F;" points="373.179,361.447 470.384,361.447 470.384,366.747 373.179,366.747 	"/>
</g>
<path style="fill:#E4E7ED;" d="M421.781,308.478c4.384,0,7.932,3.553,7.932,7.932c0,4.384-3.553,7.938-7.932,7.938
	c-4.384,0-7.938-3.553-7.938-7.938C413.844,312.031,417.397,308.478,421.781,308.478z"/>
<path style="fill:#FF7069;" d="M421.781,336.417c2.283,0,4.132,1.849,4.132,4.132c0,2.283-1.849,4.132-4.132,4.132
	c-2.283,0-4.132-1.849-4.132-4.132C417.65,338.266,419.499,336.417,421.781,336.417z"/>
<g>
</g>
<g>
</g>
<g>
</g>
<g>
</g>
<g>
</g>
<g>
</g>
<g>
</g>
<g>
</g>
<g>
</g>
<g>
</g>
<g>
</g>
<g>
</g>
<g>
</g>
<g>
</g>
<g>
</g>
</svg>
