<?xml version="1.0" encoding="iso-8859-1"?>
<!-- Generator: Adobe Illustrator 19.0.0, SVG Export Plug-In . SVG Version: 6.00 Build 0)  -->
<svg version="1.1" id="Layer_1" xmlns="http://www.w3.org/2000/svg" xmlns:xlink="http://www.w3.org/1999/xlink" x="0px" y="0px"
	 viewBox="0 0 509.287 509.287" style="enable-background:new 0 0 509.287 509.287;" xml:space="preserve">
<circle style="fill:#FFFFFF;" cx="254.644" cy="254.644" r="254.644"/>
<path style="fill:#9C9C9C;" d="M420.111,106.469H87.142c-7.799,0-14.241,6.442-14.241,14.241v223.788
	c0,7.799,6.442,14.241,14.241,14.241h332.97c7.799,0,14.241-6.442,14.241-14.241V120.71
	C434.352,112.911,427.91,106.469,420.111,106.469z"/>
<rect x="92.906" y="125.457" style="fill:#4485C5;" width="321.102" height="213.955"/>
<path style="fill:#9C9C9C;" d="M38.993,358.739c0,24.413,19.666,44.079,44.079,44.079h342.803c24.413,0,44.079-19.666,44.079-44.079
	H38.993z"/>
<rect x="198.358" y="366.538" style="fill:#DEDEDF;" width="112.572" height="14.241"/>
<path style="fill:#FFFFFF;" d="M319.746,231.926C319.407,231.926,319.407,231.926,319.746,231.926
	c-1.695-14.919-13.902-26.448-29.16-27.126c-6.103-22.379-26.448-38.993-50.861-38.993c-29.16,0-52.895,23.735-52.895,52.895
	c0,4.747,0.678,9.155,1.695,13.563c-0.339,0-0.678,0-1.017,0c-18.649,0-33.907,15.258-33.907,33.907
	c0,18.31,14.58,33.229,32.89,33.907l0,0h132.917c18.649,0,33.907-15.258,33.907-33.907
	C353.653,247.184,338.395,231.926,319.746,231.926z"/>
<polygon style="fill:#F0582F;" points="279.396,260.747 253.626,234.977 227.857,260.747 238.368,260.747 238.368,322.797 
	268.546,322.797 268.546,260.747 "/>
<g>
</g>
<g>
</g>
<g>
</g>
<g>
</g>
<g>
</g>
<g>
</g>
<g>
</g>
<g>
</g>
<g>
</g>
<g>
</g>
<g>
</g>
<g>
</g>
<g>
</g>
<g>
</g>
<g>
</g>
</svg>
