<?xml version="1.0" encoding="iso-8859-1"?>
<!-- Generator: Adobe Illustrator 19.0.0, SVG Export Plug-In . SVG Version: 6.00 Build 0)  -->
<svg version="1.1" id="Layer_1" xmlns="http://www.w3.org/2000/svg" xmlns:xlink="http://www.w3.org/1999/xlink" x="0px" y="0px"
	 viewBox="0 0 512 512" style="enable-background:new 0 0 512 512;" xml:space="preserve">
<g>
	<path style="fill:#002833;" d="M473.68,396.8V102.4c0-7.04-5.76-12.8-12.8-12.8H51.36c-7.04,0-12.8,5.76-12.8,12.8v294.4
		C38.56,396.8,474.72,396.8,473.68,396.8z"/>
	<rect x="57.76" y="106.64" style="fill:#002833;" width="396.72" height="290.16"/>
</g>
<rect y="396.8" style="fill:#E8E8E8;" width="512" height="8.56"/>
<polygon style="fill:#40596B;" points="486.4,422.4 25.6,422.4 0,405.36 512,405.36 "/>
<circle style="fill:#FF5F5F;" cx="255.84" cy="243.2" r="30.48"/>
<path style="fill:#FFFFFF;" d="M355.92,258.24v-30l-30.56-3.04c-1.76-6.4-4.4-12.48-7.84-18l19.68-24.08l-21.2-21.2l-25.04,20.48
	c-5.2-2.72-10.88-4.88-16.8-6.24l-3.28-32.96h-15.04h-0.16H240.8l-3.28,32.96c-5.92,1.36-11.52,3.44-16.8,6.24l-25.04-20.48
	l-21.2,21.2l19.68,24.08c-3.44,5.52-6.08,11.6-7.84,18l-30.56,3.04v30l30.56,3.04c1.76,6.4,4.4,12.48,7.84,18l-19.68,24.08
	l21.2,21.2l25.04-20.48c5.2,2.72,10.88,4.88,16.8,6.24l3.28,32.96h15.04H256h15.04l3.28-32.96c5.92-1.36,11.52-3.44,16.8-6.24
	l25.04,20.48l21.2-21.2l-19.68-24.08c3.44-5.52,6.08-11.6,7.84-18L355.92,258.24z M255.84,288.32c-24.96,0-45.12-20.24-45.12-45.12
	c0-24.96,20.24-45.12,45.12-45.12c24.96,0,45.12,20.24,45.12,45.12C300.96,268.16,280.8,288.32,255.84,288.32z"/>
<g>
</g>
<g>
</g>
<g>
</g>
<g>
</g>
<g>
</g>
<g>
</g>
<g>
</g>
<g>
</g>
<g>
</g>
<g>
</g>
<g>
</g>
<g>
</g>
<g>
</g>
<g>
</g>
<g>
</g>
</svg>
